<svg xmlns="http://www.w3.org/2000/svg" viewBox="0 0 339.56 261.74"><defs><style>.cls-1{fill:#333;}</style></defs><g id="Layer_2" data-name="Layer 2"><g id="레이어_1" data-name="레이어 1"><path class="cls-1" d="M56.37,171.87c-15.26,18.72-31.54,28.69-40.5,28.89-5.08-.61-11-4.27-14.24-9.76A17.79,17.79,0,0,1,0,183.47c0-9.57,2.85-21.37,6.72-31.75C13.43,134.22,27.27,112,47.21,112c8.35,0,15.67,3.67,20.76,7.74h1c3.87-15.88,8.55-36,12.41-53.12l-18.31,1a34.58,34.58,0,0,1-.61-6.31c14-2,25.23-5.5,26.45-5.5s2.85,1.63,4.07,3.26C89.14,75.4,64.72,176.75,61.46,191.4a.94.94,0,0,0,.81,1c1.84,0,47.78-30,51.65-34.86.61,2,5.61,1.84,5.82,3.88C102.29,172.1,68.38,202.14,56.37,200c-.6-.11-4.27-2.24-5.09-4.48.82-3.46,3.26-11.6,6.31-23Zm4.28-17.51c1.22-5.29,4.47-19.13,5.69-24.83-4.88-6.1-13.22-9-20.35-9-13,0-23.2,14-28.69,28.29-4.07,11-7.12,23.61-7.12,32.56,0,8.14,4.47,10.38,8.54,10.38C31.34,191.81,57.59,165.35,60.65,154.36ZM139,211.7c-19.33,22-32.76,28.09-39.07,28.09a20.68,20.68,0,0,1-13-9.77,14,14,0,0,1-1.63-7.33c0-7.93,2.45-20.55,6.52-31.74,6.3-16.9,20.35-39.89,38.87-39.89,7.53,0,14.24,4.07,19.53,10.38h1.22l4.28-10.79c2.64.61,5.09,1.43,7.53,2.24C158,171,148.59,208,143.9,230.43c-.2.61.21,1,.82,1,1.63,0,7.53-1.42,14.85-3.86a53.35,53.35,0,0,1,1.63,6.31c-8.34,3.25-17.7,5.08-22.59,5.08-.61,0-3.86-2.23-4.88-4.47,1-3.67,3.66-12.82,6.31-22.39ZM103.2,186.27c-4.68,11.19-7.73,24.42-7.73,35,0,6.51,3.46,9.56,7.12,9.56,10.79,0,35.62-24,39.69-35,1.42-3.87,5.08-19.13,6.31-24.63-4.89-7.73-12-11.59-19.54-11.59C117.86,159.61,108.49,173.85,103.2,186.27ZM311.77,236c-.82,0-1-.61-.82-1.43,9.77-26.45,17.3-53.52,17.3-63.09a15.59,15.59,0,0,0-1-5.9,18.26,18.26,0,0,0-12.41-10c-9.36.2-26.25,8.14-42.94,27.27l-1.22-.41c2.44-8.95,4.68-17.7,6.31-23.6-1-1.63-3.26-3.26-4.07-3.26-1,0-.84.8-10.71,2.95L300,143.81a34.46,34.46,0,0,0,12.12-4.73h0a44.82,44.82,0,0,0,7.88-6.37,68.72,68.72,0,0,0,19.54-48c0-10.18-3.26-17.71-7.94-22.39-3.86-3.86-9.56-6.1-16.08-6.1a38.27,38.27,0,0,0-5.47.39h0L259.12,66a30.71,30.71,0,0,0,6.16-13.44.75.75,0,0,0,0-.21c-.25-9.94-7.37-20.45-20.15-20.45-10.38,0-19.13,4.89-28.49,16.08-13.23,15.87-18.52,38.46-18.52,50.06,0,15.06,12.21,22.19,22,22.19,6.22,0,13.1-1.91,19.78-4.71L218.66,133l-2.58,2.11a1.24,1.24,0,0,0,.17,2l1,.6a6.85,6.85,0,0,0,4.2.89l11-1.18a1.48,1.48,0,0,1,1.83,1.63c0,10-9.56,33.17-16.28,46.6a223,223,0,0,1-16.69,28.09h-.81c-2.43-22.69-5.26-53.44-7.7-81.42a1.11,1.11,0,0,0-.3-.69c-1.4-1.55-3.27-3.17-4.41-3.17s-26.17,8.07-27.26,8.07c-.81,0-1.43-.62-.81-1.43,9.56-26.66,17.09-53.32,17.09-63.09a13.43,13.43,0,0,0-1-5.7,17.18,17.18,0,0,0-13-10.17c-6.92.2-22.19,5.09-41.31,26.66l-1-.41c5.09-19.94,16.89-65.73,20.35-79.16C139.89,1.63,137.85,0,136.84,0,135.41,0,123.4,3.66,110,6.51c.2,1.83.41,3.87.61,5.9l18.73-1.22c-6.52,26.87-27.28,112.75-32,131.27h9.57c2-7.53,8.75-35.21,11-43.35,3.25-11.6,28.69-33.38,41.92-33.38,5.09,0,7.12,4.07,7.12,8.35,0,5.9-2.23,14.85-3.66,20.14-3.25,12.42-10.17,34.19-13.84,44.57.21,2.45,3.26,5.5,4.28,5.5,4.27,0,28.55-5.35,28.55-5.35a1.22,1.22,0,0,1,1.47,1.09c2.27,24.83,6.95,67.17,9,83.09a1.11,1.11,0,0,1-.18.77c-4.86,7.18-11.45,13.56-16.86,18.37a100.72,100.72,0,0,1-20.22,14.15,1.24,1.24,0,0,0-.55,1.66,10.37,10.37,0,0,0,4,3.52,1.19,1.19,0,0,0,1.07,0c4.5-2.1,36.57-18.52,64.93-72.48,8.14-15.26,19.95-41.11,19.95-55.15,0-1-4-5.5-5-5.5s-5.13,1.53-11.63,2.91a186.58,186.58,0,0,0,29.07-25.2s.33-.43.19-.76a53.64,53.64,0,0,0-2.61-5.32c-10.78,6.31-23.61,11.8-31.95,11.8-9.36,0-14.45-5.7-14.45-16.07a72.24,72.24,0,0,1,3.06-17.69.89.89,0,0,1,.87-.63c10.86,0,20.48-.74,29-2.82l48.67-8.14c-.22.2-.43.38-.64.59-12.62,12.21-21,31.54-21,51.08,0,7.73,2.65,14.45,5.91,18.52a20.56,20.56,0,0,0,10.62,6.79L247.51,159.7a1.69,1.69,0,0,0-.78,2.44l2.7,4.46a1.43,1.43,0,0,0,1.38.69l15.57-1.53c-5.49,24.62-13.83,57.59-18.31,76.11h9.56c2.24-8.14,8.75-35.41,10.79-42.53,3.05-11.6,28.9-34.19,42.53-34.19,5.09,0,6.92,3.86,6.92,8.34,0,5.9-2,14.45-3.66,20.76-3,11.39-10,33.78-13.43,43.75.61,3.26,3.66,5.7,4.47,5.7,5.91,0,15.68-2,23.41-4.68-.41-2.24-.82-4.48-1.43-6.71C320.31,234.54,314.41,236,311.77,236ZM214.22,69.4A66.8,66.8,0,0,1,224.6,50.05c4.48-5.69,10.38-10,17.91-10,8.54,0,12.21,6.31,12.21,13.23,0,5.9-4.07,9.36-9.16,11.81-7.46,3.72-18.9,5.56-30.48,5.5A.92.92,0,0,1,214.22,69.4Zm81.18,67.77c-5.09,0-9.77-1.63-12.42-5.91-2.64-4.07-3.86-8.75-3.86-15.67,0-16.68,6.71-31.74,11.8-38.87,6.31-8.54,13.84-13,21.77-13,6.92,0,10.38,3,12.62,6.92C328,74.69,329,79.17,329,87.92c0,12.82-5.3,29.51-13.23,38.66a33.15,33.15,0,0,1-10.25,8.17l-2.18.94A22.28,22.28,0,0,1,295.4,137.17Z"/></g></g></svg>